<?xml version="1.0" encoding="UTF-8"?>
<svg xmlns="http://www.w3.org/2000/svg" version="1.1" viewBox="0 0 400 400">
  <!-- Generator: Adobe Illustrator 30.2.1, SVG Export Plug-In . SVG Version: 2.1.1 Build 1)  -->
  <defs>
    <style>
      .st0 {
        fill: #fff;
        mix-blend-mode: lighten;
      }

      .st1 {
        isolation: isolate;
      }
    </style>
  </defs>
  <g class="st1">
    <g id="Layer_1">
      <g>
        <path class="st0" d="M110.7,151.8c-.6-7.9,7.2-10.7,15.9-12.9.6-.1,1.2-.1,1.8-.2l-21.4-50.5c-2.3-5.4-8.1-8.3-13.8-7.1-26.2,5.4-49.4,15.7-67.2,34.5-18.1,19.6-21,51.5-6.7,72.1,20.4,28,58.7,43.2,91,49.4,14.5,4.1,72,11.9,62.8,20.4-18.1,16.4-84.8,2.8-125.3-12.1-5.6-2-11.7.3-14.6,5.5l-20.9,37.3c-3.7,6.5-.6,14.8,6.4,17.4,48.9,18.1,117.5,24.5,170.3,14.7,7.7-1.4,12-9.5,9-16.7l-56.7-134.1c-1.7-4-5.5-6.8-9.8-7.3-10.1-1.1-20.3-3.2-20.8-10.2Z"/>
        <path class="st0" d="M309.6,81.9l-11.2,26.7c-3.5,8.4-15.5,8.4-18.9,0l-10.8-26.5c-1.6-3.9-5.3-6.4-9.5-6.4h-57.3s-16.4,1.2,1.1,3.8c17.6,2.6,34.8,6.7,50.6,12.5,5.9,2.2,8.6,8.9,5.7,14.5l-21.1,40.1c-2.4,4.6-7.8,6.6-12.6,4.8-25.4-9.2-53-15.3-79.2-14.4-8.8.3-14.5,9.6-11.1,17.7h0c2.1,4.9,6.6,8.2,11.9,8.6,25.1,2,98.2,10.9,121.3,49.8,42.1,70.7-60.5,102.7-64.6,103.8l3.3,7.7h75.7c4.1,0,7.8-2.5,9.4-6.3l96.6-228.4c2.9-6.8-2.1-14.2-9.4-14.2h-60.2c-4.1,0-7.9,2.5-9.5,6.3Z"/>
      </g>
    </g>
  </g>
</svg>